<?xml version="1.0" encoding="UTF-8"?>
<!DOCTYPE svg PUBLIC "-//W3C//DTD SVG 1.1//EN" "http://www.w3.org/Graphics/SVG/1.1/DTD/svg11.dtd">
<svg xmlns="http://www.w3.org/2000/svg" version="1.1" width="414px" height="51px" style="shape-rendering:geometricPrecision; text-rendering:geometricPrecision; image-rendering:optimizeQuality; fill-rule:evenodd; clip-rule:evenodd" xmlns:xlink="http://www.w3.org/1999/xlink">
<g><path style="opacity:0.932" fill="#fefffe" d="M -0.5,-0.5 C 2.83333,-0.5 6.16667,-0.5 9.5,-0.5C 9.5,13.1667 9.5,26.8333 9.5,40.5C 13.1667,40.5 16.8333,40.5 20.5,40.5C 20.7471,43.9387 20.4137,47.272 19.5,50.5C 12.8333,50.5 6.16667,50.5 -0.5,50.5C -0.5,33.5 -0.5,16.5 -0.5,-0.5 Z"/></g>
<g><path style="opacity:0.936" fill="#fefffe" d="M 22.5,-0.5 C 29.1667,-0.5 35.8333,-0.5 42.5,-0.5C 42.5,2.83333 42.5,6.16667 42.5,9.5C 39.1667,9.5 35.8333,9.5 32.5,9.5C 32.5,12.5 32.5,15.5 32.5,18.5C 35.8333,18.5 39.1667,18.5 42.5,18.5C 42.5,21.8333 42.5,25.1667 42.5,28.5C 39.1667,28.5 35.8333,28.5 32.5,28.5C 32.5,32.1667 32.5,35.8333 32.5,39.5C 36.1667,39.5 39.8333,39.5 43.5,39.5C 43.5,43.1667 43.5,46.8333 43.5,50.5C 36.5,50.5 29.5,50.5 22.5,50.5C 22.5,33.5 22.5,16.5 22.5,-0.5 Z"/></g>
<g><path style="opacity:0.898" fill="#fefffe" d="M 51.5,-0.5 C 55.1667,-0.5 58.8333,-0.5 62.5,-0.5C 68.0641,2.8073 70.3974,7.8073 69.5,14.5C 65.8333,14.5 62.1667,14.5 58.5,14.5C 58.5,12.8333 58.5,11.1667 58.5,9.5C 57.5,9.5 56.5,9.5 55.5,9.5C 55.3433,10.8734 55.51,12.2068 56,13.5C 59.6667,17.1667 63.3333,20.8333 67,24.5C 71.265,31.3026 71.5983,38.3026 68,45.5C 66.5945,47.7437 64.7611,49.4103 62.5,50.5C 59.5,50.5 56.5,50.5 53.5,50.5C 49.711,49.667 47.211,47.3336 46,43.5C 44.8054,39.2486 44.3054,34.9152 44.5,30.5C 48.1667,30.5 51.8333,30.5 55.5,30.5C 55.3354,33.5184 55.502,36.5184 56,39.5C 57,40.8333 58,40.8333 59,39.5C 59.7429,36.2171 59.0762,33.2171 57,30.5C 53.6667,27.1667 50.3333,23.8333 47,20.5C 42.9981,12.1872 44.4981,5.18721 51.5,-0.5 Z"/></g>
<g><path style="opacity:0.94" fill="#fefffe" d="M 86.5,-0.5 C 92.1667,-0.5 97.8333,-0.5 103.5,-0.5C 109.129,2.91919 111.796,8.08585 111.5,15C 111.376,20.2666 109.709,24.9333 106.5,29C 103.274,30.1989 99.941,30.6989 96.5,30.5C 96.5,37.1667 96.5,43.8333 96.5,50.5C 93.1667,50.5 89.8333,50.5 86.5,50.5C 86.5,33.5 86.5,16.5 86.5,-0.5 Z M 96.5,9.5 C 99.6202,9.87391 100.954,11.7072 100.5,15C 100.954,18.2928 99.6202,20.1261 96.5,20.5C 96.5,16.8333 96.5,13.1667 96.5,9.5 Z"/></g>
<g><path style="opacity:0.909" fill="#fefffe" d="M 113.5,-0.5 C 120.5,-0.5 127.5,-0.5 134.5,-0.5C 134.5,2.83333 134.5,6.16667 134.5,9.5C 131.167,9.5 127.833,9.5 124.5,9.5C 124.5,12.5 124.5,15.5 124.5,18.5C 127.5,18.5 130.5,18.5 133.5,18.5C 133.5,21.8333 133.5,25.1667 133.5,28.5C 130.5,28.5 127.5,28.5 124.5,28.5C 124.5,32.1667 124.5,35.8333 124.5,39.5C 127.833,39.5 131.167,39.5 134.5,39.5C 134.5,43.1667 134.5,46.8333 134.5,50.5C 127.5,50.5 120.5,50.5 113.5,50.5C 113.5,33.5 113.5,16.5 113.5,-0.5 Z"/></g>
<g><path style="opacity:0.893" fill="#fefffe" d="M 135.5,-0.5 C 143.167,-0.5 150.833,-0.5 158.5,-0.5C 158.5,2.83333 158.5,6.16667 158.5,9.5C 156.5,9.5 154.5,9.5 152.5,9.5C 152.5,23.1667 152.5,36.8333 152.5,50.5C 148.833,50.5 145.167,50.5 141.5,50.5C 141.5,36.8333 141.5,23.1667 141.5,9.5C 139.5,9.5 137.5,9.5 135.5,9.5C 135.5,6.16667 135.5,2.83333 135.5,-0.5 Z"/></g>
<g><path style="opacity:0.937" fill="#fefffe" d="M 159.5,-0.5 C 162.833,-0.5 166.167,-0.5 169.5,-0.5C 169.5,16.5 169.5,33.5 169.5,50.5C 166.167,50.5 162.833,50.5 159.5,50.5C 159.5,33.5 159.5,16.5 159.5,-0.5 Z"/></g>
<g><path style="opacity:0.898" fill="#fefffe" d="M 171.5,-0.5 C 178.833,-0.5 186.167,-0.5 193.5,-0.5C 193.5,2.83333 193.5,6.16667 193.5,9.5C 191.833,9.5 190.167,9.5 188.5,9.5C 188.815,23.2456 188.481,36.9123 187.5,50.5C 184.167,50.5 180.833,50.5 177.5,50.5C 177.5,36.8333 177.5,23.1667 177.5,9.5C 175.5,9.5 173.5,9.5 171.5,9.5C 171.5,6.16667 171.5,2.83333 171.5,-0.5 Z"/></g>
<g><path style="opacity:0.897" fill="#fefffe" d="M 201.5,-0.5 C 205.167,-0.5 208.833,-0.5 212.5,-0.5C 218.064,2.8073 220.397,7.8073 219.5,14.5C 215.833,14.5 212.167,14.5 208.5,14.5C 208.5,12.8333 208.5,11.1667 208.5,9.5C 207.5,9.5 206.5,9.5 205.5,9.5C 205.343,10.8734 205.51,12.2068 206,13.5C 209.667,17.1667 213.333,20.8333 217,24.5C 221.41,32.1385 221.41,39.8052 217,47.5C 215.348,48.3994 213.848,49.3994 212.5,50.5C 209.5,50.5 206.5,50.5 203.5,50.5C 199.711,49.667 197.211,47.3336 196,43.5C 194.805,39.2486 194.305,34.9152 194.5,30.5C 198.167,30.5 201.833,30.5 205.5,30.5C 205.335,33.5184 205.502,36.5184 206,39.5C 207,40.8333 208,40.8333 209,39.5C 209.584,36.7433 209.25,34.0766 208,31.5C 204.333,27.8333 200.667,24.1667 197,20.5C 193,12.1788 194.5,5.17885 201.5,-0.5 Z"/></g>
<g><path style="opacity:0.938" fill="#fefffe" d="M 236.5,-0.5 C 242.167,-0.5 247.833,-0.5 253.5,-0.5C 259.126,2.91271 261.793,8.07937 261.5,15C 262.318,26.0135 257.318,31.1802 246.5,30.5C 246.5,37.1667 246.5,43.8333 246.5,50.5C 243.167,50.5 239.833,50.5 236.5,50.5C 236.5,33.5 236.5,16.5 236.5,-0.5 Z M 246.5,9.5 C 249.62,9.87391 250.954,11.7072 250.5,15C 250.954,18.2928 249.62,20.1261 246.5,20.5C 246.5,16.8333 246.5,13.1667 246.5,9.5 Z"/></g>
<g><path style="opacity:0.896" fill="#fefffe" d="M 263.5,-0.5 C 267.167,-0.5 270.833,-0.5 274.5,-0.5C 274.5,13.1667 274.5,26.8333 274.5,40.5C 277.833,40.5 281.167,40.5 284.5,40.5C 284.336,43.1873 284.503,45.854 285,48.5C 286.711,32.1798 288.211,15.8465 289.5,-0.5C 295.5,-0.5 301.5,-0.5 307.5,-0.5C 308.969,16.5279 310.636,33.5279 312.5,50.5C 309.167,50.5 305.833,50.5 302.5,50.5C 301.597,47.6085 301.264,44.6085 301.5,41.5C 299.533,41.2606 297.699,41.5939 296,42.5C 295.503,45.146 295.336,47.8127 295.5,50.5C 292.167,50.5 288.833,50.5 285.5,50.5C 285.167,49.1667 284.833,49.1667 284.5,50.5C 277.5,50.5 270.5,50.5 263.5,50.5C 263.5,33.5 263.5,16.5 263.5,-0.5 Z M 297.5,17.5 C 299.38,22.4076 300.38,27.7409 300.5,33.5C 299.167,33.5 297.833,33.5 296.5,33.5C 297.342,28.213 297.676,22.8797 297.5,17.5 Z"/></g>
<g><path style="opacity:0.894" fill="#fefffe" d="M 311.5,-0.5 C 319.167,-0.5 326.833,-0.5 334.5,-0.5C 334.5,2.83333 334.5,6.16667 334.5,9.5C 332.5,9.5 330.5,9.5 328.5,9.5C 328.5,23.1667 328.5,36.8333 328.5,50.5C 325.167,50.5 321.833,50.5 318.5,50.5C 317.519,36.9123 317.185,23.2456 317.5,9.5C 315.5,9.5 313.5,9.5 311.5,9.5C 311.5,6.16667 311.5,2.83333 311.5,-0.5 Z"/></g>
<g><path style="opacity:0.898" fill="#fefffe" d="M 341.5,-0.5 C 345.5,-0.5 349.5,-0.5 353.5,-0.5C 358.657,3.0343 360.99,8.0343 360.5,14.5C 356.833,14.5 353.167,14.5 349.5,14.5C 349.5,12.8333 349.5,11.1667 349.5,9.5C 347.654,9.22216 346.32,9.88882 345.5,11.5C 349.168,16.6647 353.334,21.3313 358,25.5C 361.282,32.473 361.282,39.473 358,46.5C 356.5,48.4687 354.667,49.802 352.5,50.5C 349.5,50.5 346.5,50.5 343.5,50.5C 340.66,49.3135 338.494,47.3135 337,44.5C 335.691,39.9342 335.191,35.2675 335.5,30.5C 339.167,30.5 342.833,30.5 346.5,30.5C 346.5,33.8333 346.5,37.1667 346.5,40.5C 347.5,40.5 348.5,40.5 349.5,40.5C 349.664,37.8127 349.497,35.146 349,32.5C 345.946,28.9559 342.613,25.6226 339,22.5C 334.769,16.069 334.436,9.40232 338,2.5C 339.518,1.83663 340.685,0.836628 341.5,-0.5 Z"/></g>
<g><path style="opacity:0.837" fill="#070707" d="M 413.5,21.5 C 413.5,25.8333 413.5,30.1667 413.5,34.5C 409.395,43.6023 402.395,48.9356 392.5,50.5C 391.833,50.5 391.167,50.5 390.5,50.5C 377.359,48.8574 370.025,41.3574 368.5,28C 371.09,12.7424 380.09,5.74237 395.5,7C 404.076,8.75186 410.076,13.5852 413.5,21.5 Z"/></g>
<g><path style="opacity:1" fill="#ececec" d="M 385.5,10.5 C 405.336,9.57794 412.836,18.5779 408,37.5C 396.911,49.4855 385.911,49.4855 375,37.5C 370.155,25.1973 373.655,16.1973 385.5,10.5 Z"/></g>
<g><path style="opacity:1" fill="#171717" d="M 386.5,13.5 C 395.731,12.3649 402.231,16.0315 406,24.5C 406.5,37.3333 400.333,43.5 387.5,43C 376.166,37.5057 373.666,29.3391 380,18.5C 382.326,16.9343 384.492,15.2676 386.5,13.5 Z"/></g>
<g><path style="opacity:1" fill="#f6f6f6" d="M 388.5,16.5 C 399.992,16.8105 404.492,22.4772 402,33.5C 398.364,39.1768 393.197,41.0101 386.5,39C 379.3,34.6302 377.8,28.7968 382,21.5C 383.805,19.1743 385.972,17.5077 388.5,16.5 Z"/></g>
</svg>
